<?xml version="1.0" encoding="iso-8859-1"?>
<!-- Uploaded to: SVG Repo, www.svgrepo.com, Generator: SVG Repo Mixer Tools -->
<svg fill="#000000" height="800px" width="800px" version="1.1" id="Layer_1" xmlns="http://www.w3.org/2000/svg" xmlns:xlink="http://www.w3.org/1999/xlink" 
	 viewBox="0 0 512 512" xml:space="preserve">
<g>
	<g>
		<g>
			<path d="M490.667,0H21.333C9.551,0,0,9.551,0,21.333c0,11.782,9.551,21.333,21.333,21.333v320h213.333v24.987
				C209.808,396.438,192,420.128,192,448c0,35.355,28.645,64,64,64s64-28.645,64-64c0-27.872-17.808-51.562-42.667-60.346v-24.987
				h213.333v-320c11.782,0,21.333-9.551,21.333-21.333C512,9.551,502.449,0,490.667,0z M256,469.333
				c-11.791,0-21.333-9.542-21.333-21.333s9.542-21.333,21.333-21.333c11.791,0,21.333,9.542,21.333,21.333
				S267.791,469.333,256,469.333z M448,320H64V42.667h384V320z"/>
			<path d="M277.333,85.333v85.333h85.333C362.667,123.541,324.459,85.333,277.333,85.333z"/>
			<path d="M256,277.333c47.125,0,85.333-38.208,85.333-85.333H256v-85.333c-47.125,0-85.333,38.208-85.333,85.333
				S208.875,277.333,256,277.333z"/>
		</g>
	</g>
</g>
</svg>